<mxfile host="app.diagrams.net" agent="Mozilla/5.0 (Windows NT 10.0; Win64; x64) AppleWebKit/537.36 (KHTML, like Gecko) Chrome/128.0.0.0 Safari/537.36" version="24.7.8">
  <diagram name="Page-1" id="b98fa263-6416-c6ec-5b7d-78bf54ef71d0">
    <mxGraphModel dx="989" dy="514" grid="1" gridSize="10" guides="1" tooltips="1" connect="1" arrows="1" fold="1" page="1" pageScale="1.5" pageWidth="1169" pageHeight="826" background="none" math="0" shadow="0">
      <root>
        <mxCell id="0" style=";html=1;" />
        <mxCell id="1" style=";html=1;" parent="0" />
        <mxCell id="303ed1de8c2c98b4-7" value="HOME/WORKS" style="whiteSpace=wrap;html=1;rounded=1;shadow=1;strokeWidth=1;fontSize=16;align=center;fillColor=#f5f5f5;strokeColor=#666666;" parent="1" vertex="1">
          <mxGeometry x="460" y="240" width="160" height="40" as="geometry" />
        </mxCell>
        <mxCell id="uTVpnbOvaS01CHnLGtV6-3" value="ABOUT" style="whiteSpace=wrap;html=1;rounded=1;shadow=1;strokeWidth=1;fontSize=16;align=center;fillColor=#f5f5f5;strokeColor=#666666;" vertex="1" parent="1">
          <mxGeometry x="360" y="320" width="160" height="40" as="geometry" />
        </mxCell>
        <mxCell id="uTVpnbOvaS01CHnLGtV6-4" value="CONTACT" style="whiteSpace=wrap;html=1;rounded=1;shadow=1;strokeWidth=1;fontSize=16;align=center;fillColor=#f5f5f5;strokeColor=#666666;" vertex="1" parent="1">
          <mxGeometry x="360" y="400" width="160" height="40" as="geometry" />
        </mxCell>
        <mxCell id="uTVpnbOvaS01CHnLGtV6-5" value="WORK 1" style="whiteSpace=wrap;html=1;rounded=1;shadow=1;strokeWidth=1;fontSize=16;align=center;fillColor=#f5f5f5;strokeColor=#666666;" vertex="1" parent="1">
          <mxGeometry x="560" y="400" width="140" height="40" as="geometry" />
        </mxCell>
        <mxCell id="uTVpnbOvaS01CHnLGtV6-6" value="WORK 2" style="whiteSpace=wrap;html=1;rounded=1;shadow=1;strokeWidth=1;fontSize=16;align=center;fillColor=#f5f5f5;strokeColor=#666666;" vertex="1" parent="1">
          <mxGeometry x="560" y="480" width="140" height="40" as="geometry" />
        </mxCell>
        <mxCell id="uTVpnbOvaS01CHnLGtV6-7" value="WORK 3" style="whiteSpace=wrap;html=1;rounded=1;shadow=1;strokeWidth=1;fontSize=16;align=center;fillColor=#f5f5f5;strokeColor=#666666;" vertex="1" parent="1">
          <mxGeometry x="560" y="560" width="140" height="40" as="geometry" />
        </mxCell>
        <mxCell id="uTVpnbOvaS01CHnLGtV6-8" value="WORK 4" style="whiteSpace=wrap;html=1;rounded=1;shadow=1;strokeWidth=1;fontSize=16;align=center;fillColor=#f5f5f5;strokeColor=#666666;" vertex="1" parent="1">
          <mxGeometry x="560" y="640" width="140" height="40" as="geometry" />
        </mxCell>
        <mxCell id="uTVpnbOvaS01CHnLGtV6-9" value="" style="endArrow=none;html=1;rounded=0;entryX=0.5;entryY=1;entryDx=0;entryDy=0;edgeStyle=orthogonalEdgeStyle;exitX=0;exitY=0.5;exitDx=0;exitDy=0;" edge="1" parent="1" source="uTVpnbOvaS01CHnLGtV6-8" target="303ed1de8c2c98b4-7">
          <mxGeometry width="50" height="50" relative="1" as="geometry">
            <mxPoint x="540" y="630" as="sourcePoint" />
            <mxPoint x="560" y="500" as="targetPoint" />
            <Array as="points">
              <mxPoint x="540" y="660" />
            </Array>
          </mxGeometry>
        </mxCell>
        <mxCell id="uTVpnbOvaS01CHnLGtV6-11" value="" style="endArrow=none;html=1;rounded=0;edgeStyle=orthogonalEdgeStyle;exitX=0;exitY=0.5;exitDx=0;exitDy=0;entryX=0.5;entryY=1;entryDx=0;entryDy=0;" edge="1" parent="1" target="303ed1de8c2c98b4-7">
          <mxGeometry width="50" height="50" relative="1" as="geometry">
            <mxPoint x="560" y="580" as="sourcePoint" />
            <mxPoint x="540" y="370" as="targetPoint" />
            <Array as="points">
              <mxPoint x="540" y="580" />
            </Array>
          </mxGeometry>
        </mxCell>
        <mxCell id="uTVpnbOvaS01CHnLGtV6-12" value="" style="endArrow=none;html=1;rounded=0;edgeStyle=orthogonalEdgeStyle;exitX=0;exitY=0.5;exitDx=0;exitDy=0;" edge="1" parent="1">
          <mxGeometry width="50" height="50" relative="1" as="geometry">
            <mxPoint x="560" y="500" as="sourcePoint" />
            <mxPoint x="540" y="360" as="targetPoint" />
            <Array as="points">
              <mxPoint x="540" y="500" />
            </Array>
          </mxGeometry>
        </mxCell>
        <mxCell id="uTVpnbOvaS01CHnLGtV6-13" value="" style="endArrow=none;html=1;rounded=0;edgeStyle=orthogonalEdgeStyle;exitX=0;exitY=0.5;exitDx=0;exitDy=0;" edge="1" parent="1">
          <mxGeometry width="50" height="50" relative="1" as="geometry">
            <mxPoint x="560" y="420" as="sourcePoint" />
            <mxPoint x="540" y="360" as="targetPoint" />
            <Array as="points">
              <mxPoint x="540" y="420" />
            </Array>
          </mxGeometry>
        </mxCell>
      </root>
    </mxGraphModel>
  </diagram>
</mxfile>
